<svg xmlns="http://www.w3.org/2000/svg" width="46" height="18" viewBox="0 0 46 18" fill="none"><path d="M1 5H3M45 5H43M18.4535 4.41659C19.7446 3.5233 21.3112 3 23 3C24.7336 3 26.3384 3.55143 27.6486 4.48846M19 9C19 13.4183 15.4183 17 11 17C6.58172 17 3 13.4183 3 9C3 4.58172 6.58172 1 11 1C15.4183 1 19 4.58172 19 9ZM43 9C43 13.4183 39.4183 17 35 17C30.5817 17 27 13.4183 27 9C27 4.58172 30.5817 1 35 1C39.4183 1 43 4.58172 43 9Z" stroke="#F22010" stroke-width="2" stroke-linecap="square"></path></svg>