<svg xmlns="http://www.w3.org/2000/svg" width="20" height="20" viewBox="0 0 20 20" fill="none"><g id="lock, private"><path id="Icon" d="M4.16797 8.33333V7.5H3.33464V8.33333H4.16797ZM15.8346 8.33333H16.668V7.5H15.8346V8.33333ZM15.8346 17.5V18.3333H16.668V17.5H15.8346ZM4.16797 17.5H3.33464V18.3333H4.16797V17.5ZM12.5013 8.33333C12.5013 8.79357 12.8744 9.16667 13.3346 9.16667C13.7949 9.16667 14.168 8.79357 14.168 8.33333H12.5013ZM5.83464 8.33333C5.83464 8.79357 6.20773 9.16667 6.66797 9.16667C7.12821 9.16667 7.5013 8.79357 7.5013 8.33333H5.83464ZM10.8346 11.6667V10.8333H9.16797V11.6667H10.8346ZM9.16797 14.1667V15H10.8346V14.1667H9.16797ZM4.16797 9.16667H15.8346V7.5H4.16797V9.16667ZM15.0013 8.33333V17.5H16.668V8.33333H15.0013ZM15.8346 16.6667H4.16797V18.3333H15.8346V16.6667ZM5.0013 17.5V8.33333H3.33464V17.5H5.0013ZM12.5013 5.83333V8.33333H14.168V5.83333H12.5013ZM7.5013 8.33333V5.83333H5.83464V8.33333H7.5013ZM10.0013 3.33333C11.382 3.33333 12.5013 4.45262 12.5013 5.83333H14.168C14.168 3.53215 12.3025 1.66667 10.0013 1.66667V3.33333ZM10.0013 1.66667C7.70012 1.66667 5.83464 3.53215 5.83464 5.83333H7.5013C7.5013 4.45262 8.62059 3.33333 10.0013 3.33333V1.66667ZM9.16797 11.6667V14.1667H10.8346V11.6667H9.16797Z" fill="#F22010"></path></g></svg>