<svg xmlns="http://www.w3.org/2000/svg" width="34" height="37" viewBox="0 0 34 37" fill="none"><path d="M1.3335 35L0.337886 34.9064L0.235078 36H1.3335V35ZM21.9453 23.0977L22.8669 23.4859L23.6433 21.6427L22.7217 21.2545L21.9453 23.0977ZM14.3335 36H15.3335V34H14.3335V36ZM22.9335 31.2L22.1335 30.6L20.9335 32.2L21.7335 32.8L22.9335 31.2ZM26.3335 35L25.7335 35.8L26.6205 36.4653L27.191 35.5145L26.3335 35ZM33.191 25.5145L33.7055 24.657L31.9905 23.628L31.476 24.4855L33.191 25.5145ZM22.3335 8C22.3335 11.3137 19.6472 14 16.3335 14V16C20.7518 16 24.3335 12.4183 24.3335 8H22.3335ZM16.3335 14C13.0198 14 10.3335 11.3137 10.3335 8H8.3335C8.3335 12.4183 11.9152 16 16.3335 16V14ZM10.3335 8C10.3335 4.68629 13.0198 2 16.3335 2V0C11.9152 0 8.3335 3.58172 8.3335 8H10.3335ZM16.3335 2C19.6472 2 22.3335 4.68629 22.3335 8H24.3335C24.3335 3.58172 20.7518 0 16.3335 0V2ZM2.32911 35.0936C3.02368 27.7053 8.52066 22 16.3335 22V20C7.38551 20 1.11909 26.5965 0.337886 34.9064L2.32911 35.0936ZM16.3335 22C18.3898 22 20.2731 22.3933 21.9453 23.0977L22.7217 21.2545C20.7963 20.4435 18.6483 20 16.3335 20V22ZM1.3335 36H14.3335V34H1.3335V36ZM21.7335 32.8L25.7335 35.8L26.9335 34.2L22.9335 31.2L21.7335 32.8ZM27.191 35.5145L33.191 25.5145L31.476 24.4855L25.476 34.4855L27.191 35.5145Z" fill="#F22010"></path></svg>