<svg xmlns="http://www.w3.org/2000/svg" width="21" height="16" viewBox="0 0 21 16" fill="none"><g id="flags"><rect id="Mask" x="0.25" y="0.75" width="20.5" height="14.5" rx="1.75" fill="white" stroke="#F5F5F5" stroke-width="0.5"></rect><mask id="mask0_8591_10943" style="mask-type:luminance" maskUnits="userSpaceOnUse" x="0" y="0" width="21" height="16"><rect id="Mask_2" x="0.25" y="0.75" width="20.5" height="14.5" rx="1.75" fill="white" stroke="white" stroke-width="0.5"></rect></mask><g mask="url(#mask0_8591_10943)"><path id="Rectangle 537" fill-rule="evenodd" clip-rule="evenodd" d="M21 0.5H10V2.5H21V0.5ZM21 4.5H10V6.5H21V4.5ZM10 8.5H21V10.5H10V8.5ZM21 12.5H0V14.5H21V12.5Z" fill="#E1244A"></path><rect id="Rectangle 1568" y="0.5" width="10" height="10" fill="#0C3F8E"></rect><path id="Star 8" fill-rule="evenodd" clip-rule="evenodd" d="M5 6.67L3.23664 7.92705L3.88726 5.86155L2.14683 4.57295L4.31229 4.55345L5 2.5L5.68771 4.55345L7.85317 4.57295L6.11274 5.86155L6.76336 7.92705L5 6.67Z" fill="white"></path></g></g></svg>