<svg xmlns="http://www.w3.org/2000/svg" width="21" height="16" viewBox="0 0 21 16" fill="none"><g id="flags"><rect id="Mask" y="0.5" width="21" height="15" rx="2" fill="white"></rect><mask id="mask0_8584_12757" style="mask-type:luminance" maskUnits="userSpaceOnUse" x="0" y="0" width="21" height="16"><rect id="Mask_2" y="0.5" width="21" height="15" rx="2" fill="white"></rect></mask><g mask="url(#mask0_8584_12757)"><path id="Rectangle 2" fill-rule="evenodd" clip-rule="evenodd" d="M0 2.5H21V0.5H0V2.5Z" fill="#262626"></path><path id="Rectangle 2_2" fill-rule="evenodd" clip-rule="evenodd" d="M0 10.5H21V8.5H0V10.5Z" fill="#262626"></path><path id="Rectangle 2_3" fill-rule="evenodd" clip-rule="evenodd" d="M0 8.5H21V5.5H0V8.5Z" fill="#ED1623"></path><path id="Rectangle 2_4" fill-rule="evenodd" clip-rule="evenodd" d="M0 5.5H21V2.5H0V5.5Z" fill="#FEE044"></path><path id="Rectangle 2_5" fill-rule="evenodd" clip-rule="evenodd" d="M0 15.5H21V13.5H0V15.5Z" fill="#ED1623"></path><path id="Rectangle 2_6" fill-rule="evenodd" clip-rule="evenodd" d="M0 13.5H21V10.5H0V13.5Z" fill="#FEE044"></path><path id="Oval 220" fill-rule="evenodd" clip-rule="evenodd" d="M10.5 11.5C12.433 11.5 14 9.933 14 8C14 6.067 12.433 4.5 10.5 4.5C8.567 4.5 7 6.067 7 8C7 9.933 8.567 11.5 10.5 11.5Z" fill="white"></path><path id="Rectangle 1723" fill-rule="evenodd" clip-rule="evenodd" d="M9.7357 6.23576C9.60553 6.10558 9.60553 5.89453 9.7357 5.76435L9.98089 5.51917C9.99361 5.50645 10.0052 5.49275 10.0162 5.47848C10.0349 5.45409 10.0686 5.41185 10.1103 5.3667C10.2651 5.19922 10.8043 5.2339 10.9416 5.41596C11.0078 5.50374 10.9701 5.55985 10.9209 5.6582L10.5352 6.42967C10.512 6.47596 10.5 6.52699 10.5 6.57874V6.79404C10.5 6.9203 10.5713 7.03572 10.6843 7.09219L11.4516 7.47586C11.4837 7.49189 11.5129 7.51297 11.5382 7.5383L12.3301 8.33017C12.4316 8.43162 12.4567 8.58661 12.3926 8.71494L12.1838 9.13251C12.0934 9.31333 11.8524 9.35243 11.7094 9.20948C11.5938 9.09382 11.4062 9.09382 11.2906 9.20948L11.0976 9.40242C11.0351 9.46494 11 9.54972 11 9.63813V9.8965C11 9.9628 11.0263 10.0264 11.0732 10.0733C11.2307 10.2308 11.1192 10.5001 10.8964 10.5001H10.6036C10.3808 10.5001 10.2693 10.2308 10.4268 10.0733C10.4737 10.0264 10.5 9.9628 10.5 9.8965V9.83339C10.5 9.64929 10.3508 9.50005 10.1667 9.50005H10.1381C10.0497 9.50005 9.96488 9.53517 9.90237 9.59769L9.7357 9.76435C9.60553 9.89453 9.39447 9.89453 9.2643 9.76435L9.2357 9.73576C9.10553 9.60558 9.10553 9.39453 9.2357 9.26435L9.40237 9.09769C9.46488 9.03517 9.54967 9.00005 9.63807 9.00005H9.69526C9.99223 9.00005 10.141 8.64101 9.93096 8.43102L9.2357 7.73576C9.10553 7.60558 9.10553 7.39453 9.2357 7.26435L9.7643 6.73576C9.89447 6.60558 9.89447 6.39453 9.7643 6.26435L9.7357 6.23576Z" fill="#262626"></path></g></g></svg>