<svg xmlns="http://www.w3.org/2000/svg" width="28" height="20" viewBox="0 0 28 20" fill="none"><rect width="28" height="20" rx="2" fill="white"></rect><mask id="mask0_2006_66756" style="mask-type:luminance" maskUnits="userSpaceOnUse" x="0" y="0" width="28" height="20"><rect width="28" height="20" rx="2" fill="white"></rect></mask><g mask="url(#mask0_2006_66756)"><path fill-rule="evenodd" clip-rule="evenodd" d="M0 5.33333H28V0H0V5.33333Z" fill="#262626"></path><path fill-rule="evenodd" clip-rule="evenodd" d="M0 20H28V14.6667H0V20Z" fill="#018301"></path><path fill-rule="evenodd" clip-rule="evenodd" d="M0 14.6666H28V5.33331H0V14.6666Z" fill="white"></path><path fill-rule="evenodd" clip-rule="evenodd" d="M0 13.3334H28V6.66669H0V13.3334Z" fill="#DC0808"></path><path fill-rule="evenodd" clip-rule="evenodd" d="M13.9998 16.6666C15.3332 16.6666 17.3332 14.0501 17.3332 9.99998C17.3332 5.94989 15.3332 3.33331 13.9998 3.33331C12.6665 3.33331 10.6665 5.94989 10.6665 9.99998C10.6665 14.0501 12.6665 16.6666 13.9998 16.6666Z" fill="#BC0000"></path><mask id="mask1_2006_66756" style="mask-type:luminance" maskUnits="userSpaceOnUse" x="10" y="3" width="8" height="14"><path fill-rule="evenodd" clip-rule="evenodd" d="M13.9998 16.6666C15.3332 16.6666 17.3332 14.0501 17.3332 9.99998C17.3332 5.94989 15.3332 3.33331 13.9998 3.33331C12.6665 3.33331 10.6665 5.94989 10.6665 9.99998C10.6665 14.0501 12.6665 16.6666 13.9998 16.6666Z" fill="white"></path></mask><g mask="url(#mask1_2006_66756)"><path fill-rule="evenodd" clip-rule="evenodd" d="M8.66634 17.3333C10.5073 17.3333 11.9997 14.05 11.9997 9.99996C11.9997 5.94987 10.5073 2.66663 8.66634 2.66663C6.82539 2.66663 5.33301 5.94987 5.33301 9.99996C5.33301 14.05 6.82539 17.3333 8.66634 17.3333Z" fill="#262626"></path><path fill-rule="evenodd" clip-rule="evenodd" d="M19.3333 17.3333C21.1743 17.3333 22.6667 14.05 22.6667 9.99996C22.6667 5.94987 21.1743 2.66663 19.3333 2.66663C17.4924 2.66663 16 5.94987 16 9.99996C16 14.05 17.4924 17.3333 19.3333 17.3333Z" fill="#262626"></path><g filter="url(#filter0_d_2006_66756)"><path fill-rule="evenodd" clip-rule="evenodd" d="M13.9997 7.99996C14.3679 7.99996 14.6663 6.80605 14.6663 5.33329C14.6663 3.86053 14.3679 2.66663 13.9997 2.66663C13.6315 2.66663 13.333 3.86053 13.333 5.33329C13.333 6.80605 13.6315 7.99996 13.9997 7.99996ZM13.9997 12C14.3679 12 14.6663 11.1045 14.6663 9.99996C14.6663 8.89539 14.3679 7.99996 13.9997 7.99996C13.6315 7.99996 13.333 8.89539 13.333 9.99996C13.333 11.1045 13.6315 12 13.9997 12ZM13.9997 12C13.6315 12 13.333 13.1939 13.333 14.6666C13.333 16.1394 13.6315 17.3333 13.9997 17.3333C14.3679 17.3333 14.6663 16.1394 14.6663 14.6666C14.6663 13.1939 14.3679 12 13.9997 12Z" fill="url(#paint0_linear_2006_66756)"></path></g></g></g><defs><filter id="filter0_d_2006_66756" x="13.333" y="2.66663" width="1.3335" height="15.6667" filterUnits="userSpaceOnUse" color-interpolation-filters="sRGB"></filter><linearGradient id="paint0_linear_2006_66756" x1="13.333" y1="2.66663" x2="13.333" y2="17.3333" gradientUnits="userSpaceOnUse"><stop stop-color="white"></stop><stop offset="1" stop-color="#F0F0F0"></stop></linearGradient></defs></svg>