<svg xmlns="http://www.w3.org/2000/svg" width="21" height="16" viewBox="0 0 21 16" fill="none"><g id="flags"><rect id="Mask" y="0.5" width="21" height="15" rx="2" fill="white"></rect><mask id="mask0_8591_12593" style="mask-type:luminance" maskUnits="userSpaceOnUse" x="0" y="0" width="21" height="16"><rect id="Mask_2" y="0.5" width="21" height="15" rx="2" fill="white"></rect></mask><g mask="url(#mask0_8591_12593)"><path id="Rectangle 511" fill-rule="evenodd" clip-rule="evenodd" d="M21 0.5H0V1.5H21V0.5ZM21 2.5H0V3.5H21V2.5ZM0 4.5H21V5.5H0V4.5ZM21 6.5H0V7.5H21V6.5ZM0 8.5H21V9.5H0V8.5ZM21 10.5H0V11.5H21V10.5ZM0 12.5H21V13.5H0V12.5ZM21 14.5H0V15.5H21V14.5Z" fill="#D02F44"></path><rect id="Rectangle 511_2" y="0.5" width="9" height="7" fill="#46467F"></rect><g id="Oval 43" filter="url(#filter0_d_8591_12593)"><path fill-rule="evenodd" clip-rule="evenodd" d="M2 2C2 2.27614 1.77614 2.5 1.5 2.5C1.22386 2.5 1 2.27614 1 2C1 1.72386 1.22386 1.5 1.5 1.5C1.77614 1.5 2 1.72386 2 2ZM4 2C4 2.27614 3.77614 2.5 3.5 2.5C3.22386 2.5 3 2.27614 3 2C3 1.72386 3.22386 1.5 3.5 1.5C3.77614 1.5 4 1.72386 4 2ZM5.5 2.5C5.77614 2.5 6 2.27614 6 2C6 1.72386 5.77614 1.5 5.5 1.5C5.22386 1.5 5 1.72386 5 2C5 2.27614 5.22386 2.5 5.5 2.5ZM8 2C8 2.27614 7.77614 2.5 7.5 2.5C7.22386 2.5 7 2.27614 7 2C7 1.72386 7.22386 1.5 7.5 1.5C7.77614 1.5 8 1.72386 8 2ZM2.5 3.5C2.77614 3.5 3 3.27614 3 3C3 2.72386 2.77614 2.5 2.5 2.5C2.22386 2.5 2 2.72386 2 3C2 3.27614 2.22386 3.5 2.5 3.5ZM5 3C5 3.27614 4.77614 3.5 4.5 3.5C4.22386 3.5 4 3.27614 4 3C4 2.72386 4.22386 2.5 4.5 2.5C4.77614 2.5 5 2.72386 5 3ZM6.5 3.5C6.77614 3.5 7 3.27614 7 3C7 2.72386 6.77614 2.5 6.5 2.5C6.22386 2.5 6 2.72386 6 3C6 3.27614 6.22386 3.5 6.5 3.5ZM8 4C8 4.27614 7.77614 4.5 7.5 4.5C7.22386 4.5 7 4.27614 7 4C7 3.72386 7.22386 3.5 7.5 3.5C7.77614 3.5 8 3.72386 8 4ZM5.5 4.5C5.77614 4.5 6 4.27614 6 4C6 3.72386 5.77614 3.5 5.5 3.5C5.22386 3.5 5 3.72386 5 4C5 4.27614 5.22386 4.5 5.5 4.5ZM4 4C4 4.27614 3.77614 4.5 3.5 4.5C3.22386 4.5 3 4.27614 3 4C3 3.72386 3.22386 3.5 3.5 3.5C3.77614 3.5 4 3.72386 4 4ZM1.5 4.5C1.77614 4.5 2 4.27614 2 4C2 3.72386 1.77614 3.5 1.5 3.5C1.22386 3.5 1 3.72386 1 4C1 4.27614 1.22386 4.5 1.5 4.5ZM3 5C3 5.27614 2.77614 5.5 2.5 5.5C2.22386 5.5 2 5.27614 2 5C2 4.72386 2.22386 4.5 2.5 4.5C2.77614 4.5 3 4.72386 3 5ZM4.5 5.5C4.77614 5.5 5 5.27614 5 5C5 4.72386 4.77614 4.5 4.5 4.5C4.22386 4.5 4 4.72386 4 5C4 5.27614 4.22386 5.5 4.5 5.5ZM7 5C7 5.27614 6.77614 5.5 6.5 5.5C6.22386 5.5 6 5.27614 6 5C6 4.72386 6.22386 4.5 6.5 4.5C6.77614 4.5 7 4.72386 7 5ZM7.5 6.5C7.77614 6.5 8 6.27614 8 6C8 5.72386 7.77614 5.5 7.5 5.5C7.22386 5.5 7 5.72386 7 6C7 6.27614 7.22386 6.5 7.5 6.5ZM6 6C6 6.27614 5.77614 6.5 5.5 6.5C5.22386 6.5 5 6.27614 5 6C5 5.72386 5.22386 5.5 5.5 5.5C5.77614 5.5 6 5.72386 6 6ZM3.5 6.5C3.77614 6.5 4 6.27614 4 6C4 5.72386 3.77614 5.5 3.5 5.5C3.22386 5.5 3 5.72386 3 6C3 6.27614 3.22386 6.5 3.5 6.5ZM2 6C2 6.27614 1.77614 6.5 1.5 6.5C1.22386 6.5 1 6.27614 1 6C1 5.72386 1.22386 5.5 1.5 5.5C1.77614 5.5 2 5.72386 2 6Z" fill="url(#paint0_linear_8591_12593)"></path></g></g></g><defs><filter id="filter0_d_8591_12593" x="1" y="1.5" width="7" height="6" filterUnits="userSpaceOnUse" color-interpolation-filters="sRGB"></filter><linearGradient id="paint0_linear_8591_12593" x1="1" y1="1.5" x2="1" y2="6.5" gradientUnits="userSpaceOnUse"><stop stop-color="white"></stop><stop offset="1" stop-color="#F0F0F0"></stop></linearGradient></defs></svg>