<svg xmlns="http://www.w3.org/2000/svg" width="21" height="16" viewBox="0 0 21 16" fill="none"><g id="flags"><rect id="Mask" y="0.5" width="21" height="15" rx="2" fill="white"></rect><mask id="mask0_8584_11586" style="mask-type:luminance" maskUnits="userSpaceOnUse" x="0" y="0" width="21" height="16"><rect id="Mask_2" y="0.5" width="21" height="15" rx="2" fill="white"></rect></mask><g mask="url(#mask0_8584_11586)"><rect id="Mask_3" x="10" y="0.5" width="11" height="15" fill="url(#paint0_linear_8584_11586)"></rect><path id="Rectangle 2" fill-rule="evenodd" clip-rule="evenodd" d="M0 15.5H7V0.5H0V15.5Z" fill="#059170"></path><path id="Rectangle 2 Copy" fill-rule="evenodd" clip-rule="evenodd" d="M7 15.5H14V0.5H7V15.5Z" fill="#E21A30"></path><path id="Rectangle 2 Copy 2" fill-rule="evenodd" clip-rule="evenodd" d="M14 15.5H21V0.5H14V15.5Z" fill="#FFDC44"></path><path id="Star 8" fill-rule="evenodd" clip-rule="evenodd" d="M10.5 8.975L9.03054 10.0225L9.57272 8.30129L8.12236 7.22746L9.92691 7.21121L10.5 5.5L11.0731 7.21121L12.8776 7.22746L11.4273 8.30129L11.9695 10.0225L10.5 8.975Z" fill="#FFDC42"></path></g></g><defs><linearGradient id="paint0_linear_8584_11586" x1="10" y1="0.5" x2="10" y2="15.5" gradientUnits="userSpaceOnUse"><stop stop-color="#FFDC44"></stop><stop offset="1" stop-color="#FDD216"></stop></linearGradient></defs></svg>