<svg xmlns="http://www.w3.org/2000/svg" width="21" height="16" viewBox="0 0 21 16" fill="none"><g id="flags"><rect id="Mask" y="0.5" width="21" height="15" rx="2" fill="white"></rect><mask id="mask0_8591_13023" style="mask-type:luminance" maskUnits="userSpaceOnUse" x="0" y="0" width="21" height="16"><rect id="Mask_2" y="0.5" width="21" height="15" rx="2" fill="white"></rect></mask><g mask="url(#mask0_8591_13023)"><rect id="Mask Copy" y="0.5" width="21" height="15" fill="#0A17A7"></rect><path id="Rectangle 2" fill-rule="evenodd" clip-rule="evenodd" d="M-0.961692 -0.937378L8.00016 5.10747V-0.500043H13.0002V5.10747L21.962 -0.937378L23.0804 0.720698L15.9949 5.49996H21.0002V10.5H15.9949L23.0804 15.2792L21.962 16.9373L13.0002 10.8924V16.5H8.00016V10.8924L-0.961692 16.9373L-2.08008 15.2792L5.00546 10.5H0.000159502V5.49996H5.00547L-2.08008 0.720697L-0.961692 -0.937378Z" fill="white"></path><path id="Line" d="M14 5.24915L23.499 -1" stroke="#DB1F35" stroke-width="0.666667" stroke-linecap="round"></path><path id="Line Copy 2" d="M15.0098 10.7731L23.5251 16.5127" stroke="#DB1F35" stroke-width="0.666667" stroke-linecap="round"></path><path id="Line Copy" d="M6.00336 5.23291L-2.87891 -0.753174" stroke="#DB1F35" stroke-width="0.666667" stroke-linecap="round"></path><path id="Line Copy 3" d="M6.96674 10.7037L-2.87891 17.2329" stroke="#DB1F35" stroke-width="0.666667" stroke-linecap="round"></path><path id="Rectangle 2 Copy 3" fill-rule="evenodd" clip-rule="evenodd" d="M0 9.5H9V15.5H12V9.5H21V6.5H12V0.5H9V6.5H0V9.5Z" fill="#E6273E"></path></g></g></svg>