<svg xmlns="http://www.w3.org/2000/svg" width="21" height="16" viewBox="0 0 21 16" fill="none"><g id="flags"><rect id="Mask" y="0.5" width="21" height="15" rx="2" fill="white"></rect><mask id="mask0_8591_12784" style="mask-type:luminance" maskUnits="userSpaceOnUse" x="0" y="0" width="21" height="16"><rect id="Mask_2" y="0.5" width="21" height="15" rx="2" fill="white"></rect></mask><g mask="url(#mask0_8591_12784)"><path id="Rectangle 2" fill-rule="evenodd" clip-rule="evenodd" d="M0 15.5H21V11.5H0V15.5Z" fill="#FFE547"></path><path id="Rectangle 2_2" fill-rule="evenodd" clip-rule="evenodd" d="M0 4.5H21V0.5H0V4.5Z" fill="#118C81"></path><path id="Rectangle 2_3" fill-rule="evenodd" clip-rule="evenodd" d="M0 11.5H21V4.5H0V11.5Z" fill="white"></path><path id="Rectangle 2_4" fill-rule="evenodd" clip-rule="evenodd" d="M0 10.5H21V5.5H0V10.5Z" fill="#262626"></path><path id="Rectangle 83" fill-rule="evenodd" clip-rule="evenodd" d="M0 0.5L10 8L0 15.5V0.5Z" fill="#EF2147"></path><path id="Star 27" fill-rule="evenodd" clip-rule="evenodd" d="M3.5 8.95556L2.03054 10.0225L2.59121 8.29528L1.12236 7.22746L2.93834 7.22694L3.5 5.5L4.06166 7.22694L5.87764 7.22746L4.40879 8.29528L4.96946 10.0225L3.5 8.95556Z" fill="#FDE444"></path></g></g></svg>