<svg xmlns="http://www.w3.org/2000/svg" width="20" height="20" viewBox="0 0 20 20" fill="none"><path d="M10.4004 2.21173C12.9369 2.21173 13.2374 2.22123 14.2393 2.267C14.8415 2.27427 15.438 2.38499 16.0028 2.59432C16.4155 2.74662 16.7888 2.9895 17.0953 3.30509C17.4109 3.61156 17.6538 3.98488 17.8061 4.39759C18.0154 4.96235 18.1261 5.55888 18.1334 6.16114C18.1792 7.16295 18.1887 7.4635 18.1887 10C18.1887 12.5365 18.1792 12.837 18.1334 13.8389C18.1261 14.4411 18.0154 15.0377 17.8061 15.6024C17.648 16.0122 17.4059 16.3844 17.0953 16.6949C16.7848 17.0055 16.4126 17.2476 16.0028 17.4057C15.438 17.615 14.8415 17.7257 14.2393 17.733C13.2374 17.7788 12.9369 17.7883 10.4004 17.7883C7.86389 17.7883 7.56334 17.7788 6.56153 17.733C5.95898 17.7258 5.36215 17.6151 4.79712 17.4057C4.38472 17.2533 4.01171 17.0104 3.70548 16.6949C3.38989 16.3884 3.14701 16.0151 2.99471 15.6024C2.78538 15.0377 2.67466 14.4411 2.66739 13.8389C2.62162 12.837 2.61212 12.5365 2.61212 10C2.61212 7.4635 2.62162 7.16295 2.66739 6.16114C2.67466 5.55888 2.78538 4.96235 2.99471 4.39759C3.14701 3.98488 3.38989 3.61156 3.70548 3.30509C4.01195 2.9895 4.38527 2.74662 4.79798 2.59432C5.36274 2.38499 5.95927 2.27427 6.56153 2.267C7.56334 2.22123 7.86389 2.21173 10.4004 2.21173ZM10.4004 0.5C7.82071 0.5 7.49685 0.511227 6.4838 0.557C5.69575 0.572721 4.91606 0.721942 4.17789 0.998318C3.54369 1.2371 2.96925 1.61141 2.49466 2.09514C2.01136 2.56956 1.63734 3.14369 1.39871 3.7775C1.12263 4.51572 0.973699 5.2954 0.958254 6.08341C0.910754 7.09645 0.900391 7.42032 0.900391 10C0.900391 12.5797 0.911618 12.9035 0.957391 13.9166C0.973112 14.7046 1.12233 15.4843 1.39871 16.2225C1.63749 16.8567 2.0118 17.4311 2.49553 17.9057C2.96995 18.389 3.54408 18.763 4.17789 19.0017C4.91611 19.2778 5.6958 19.4267 6.4838 19.4421C7.49685 19.4896 7.82071 19.5 10.4004 19.5C12.9801 19.5 13.3039 19.4888 14.317 19.443C15.105 19.4273 15.8847 19.2781 16.6229 19.0017C17.2542 18.7576 17.8275 18.3843 18.3061 17.9057C18.7847 17.4271 19.158 16.8538 19.4021 16.2225C19.6782 15.4843 19.8271 14.7046 19.8425 13.9166C19.89 12.9035 19.9004 12.5797 19.9004 10C19.9004 7.42032 19.8892 7.09645 19.8434 6.08341C19.8277 5.29535 19.6784 4.51567 19.4021 3.7775C19.1633 3.1433 18.789 2.56886 18.3053 2.09427C17.8308 1.61096 17.2567 1.23695 16.6229 0.998318C15.8847 0.722237 15.105 0.573309 14.317 0.557864C13.3039 0.510364 12.9801 0.5 10.4004 0.5ZM10.4004 5.12132C9.43548 5.12132 8.49224 5.40745 7.68994 5.94352C6.88765 6.4796 6.26233 7.24155 5.89308 8.13301C5.52382 9.02447 5.42721 10.0054 5.61545 10.9518C5.8037 11.8982 6.26835 12.7675 6.95064 13.4497C7.63294 14.132 8.50224 14.5967 9.44861 14.7849C10.395 14.9732 11.3759 14.8766 12.2674 14.5073C13.1588 14.1381 13.9208 13.5127 14.4569 12.7105C14.9929 11.9082 15.2791 10.9649 15.2791 10C15.2791 8.70609 14.7651 7.46518 13.8501 6.55025C12.9352 5.63532 11.6943 5.12132 10.4004 5.12132ZM10.4004 13.167C9.77403 13.167 9.16173 12.9812 8.64092 12.6332C8.12012 12.2852 7.71421 11.7906 7.47451 11.2119C7.23481 10.6333 7.17209 9.99649 7.29429 9.38216C7.41649 8.76783 7.71811 8.20353 8.16102 7.76063C8.60392 7.31772 9.16822 7.0161 9.78255 6.8939C10.3969 6.7717 11.0336 6.83442 11.6123 7.07412C12.191 7.31382 12.6856 7.71973 13.0336 8.24053C13.3816 8.76134 13.5673 9.37364 13.5673 10C13.5673 10.8399 13.2337 11.6455 12.6398 12.2394C12.0458 12.8333 11.2403 13.167 10.4004 13.167ZM15.4717 3.78873C15.2462 3.78873 15.0258 3.85559 14.8383 3.98085C14.6508 4.10612 14.5047 4.28416 14.4184 4.49247C14.3322 4.70078 14.3096 4.92999 14.3536 5.15113C14.3976 5.37227 14.5061 5.5754 14.6656 5.73483C14.825 5.89426 15.0281 6.00284 15.2493 6.04682C15.4704 6.09081 15.6996 6.06823 15.9079 5.98195C16.1162 5.89567 16.2943 5.74955 16.4195 5.56208C16.5448 5.37461 16.6117 5.1542 16.6117 4.92873C16.6117 4.62638 16.4916 4.33642 16.2778 4.12263C16.064 3.90883 15.774 3.78873 15.4717 3.78873Z" fill="white"></path></svg>