<svg xmlns="http://www.w3.org/2000/svg" width="19" height="18" viewBox="0 0 19 18" fill="none"><path d="M17.0504 0H1.75039C1.39235 0 1.04897 0.142232 0.795797 0.395406C0.542622 0.64858 0.400391 0.991958 0.400391 1.35V16.65C0.400391 17.008 0.542622 17.3514 0.795797 17.6046C1.04897 17.8578 1.39235 18 1.75039 18H17.0504C17.4084 18 17.7518 17.8578 18.005 17.6046C18.2582 17.3514 18.4004 17.008 18.4004 16.65V1.35C18.4004 0.991958 18.2582 0.64858 18.005 0.395406C17.7518 0.142232 17.4084 0 17.0504 0ZM5.80039 15.3H3.10039V7.2H5.80039V15.3ZM4.45039 5.625C4.14095 5.61616 3.84099 5.51632 3.58797 5.33797C3.33495 5.15962 3.14009 4.91066 3.02776 4.6222C2.91542 4.33374 2.89058 4.01857 2.95634 3.71607C3.02209 3.41358 3.17554 3.13716 3.39749 2.92138C3.61945 2.70559 3.90007 2.55999 4.2043 2.50278C4.50853 2.44556 4.82287 2.47927 5.10805 2.59969C5.39323 2.7201 5.63661 2.92189 5.80776 3.17983C5.97892 3.43778 6.07026 3.74044 6.07039 4.05C6.06328 4.47331 5.88889 4.8766 5.58534 5.17173C5.28178 5.46685 4.87374 5.62982 4.45039 5.625ZM15.7004 15.3H13.0004V11.034C13.0004 9.756 12.4604 9.297 11.7584 9.297C11.5526 9.3107 11.3515 9.36493 11.1667 9.45658C10.9819 9.54822 10.817 9.67547 10.6815 9.83102C10.546 9.98657 10.4426 10.1674 10.3772 10.363C10.3118 10.5586 10.2857 10.7652 10.3004 10.971C10.2959 11.0129 10.2959 11.0551 10.3004 11.097V15.3H7.60039V7.2H10.2104V8.37C10.4737 7.9695 10.8354 7.64331 11.2609 7.42269C11.6863 7.20207 12.1614 7.0944 12.6404 7.11C14.0354 7.11 15.6644 7.884 15.6644 10.404L15.7004 15.3Z" fill="white"></path></svg>