<svg xmlns="http://www.w3.org/2000/svg" width="22" height="18" viewBox="0 0 22 18" fill="none"><path fill-rule="evenodd" clip-rule="evenodd" d="M19.6047 1.00776C20.5088 1.28763 21.2193 2.10925 21.4613 3.15475C21.8986 5.04786 21.9004 9 21.9004 9C21.9004 9 21.9004 12.9522 21.4613 14.8453C21.2193 15.8908 20.5088 16.7124 19.6047 16.9922C17.9677 17.5 11.4004 17.5 11.4004 17.5C11.4004 17.5 4.83313 17.5 3.19607 16.9922C2.29198 16.7124 1.58149 15.8908 1.33948 14.8453C0.900391 12.9522 0.900391 9 0.900391 9C0.900391 9 0.900391 5.04786 1.33948 3.15475C1.58149 2.10925 2.29198 1.28763 3.19607 1.00776C4.83313 0.5 11.4004 0.5 11.4004 0.5C11.4004 0.5 17.9677 0.5 19.6047 1.00776ZM14.9138 9.00031L9.19824 12.2999V5.70065L14.9138 9.00031Z" fill="white"></path></svg>