<svg xmlns="http://www.w3.org/2000/svg" width="21" height="20" viewBox="0 0 21 20" fill="none"><path d="M7.98443 19.706V13.0561H5.92054V10H7.98443V8.68333C7.98443 5.27944 9.52443 3.70333 12.8644 3.70333C13.4966 3.70333 14.5883 3.82722 15.0366 3.95111V6.71944C14.8005 6.69556 14.3883 6.68333 13.8805 6.68333C12.2405 6.68333 11.6083 7.30333 11.6083 8.91944V10H14.8766L14.3167 13.0556H11.6128V19.9277C16.5641 19.3279 20.4004 15.112 20.4004 10C20.4004 4.47722 15.9232 0 10.4004 0C4.87761 0 0.400391 4.47722 0.400391 10C0.400391 14.6899 3.62852 18.6253 7.98443 19.706Z" fill="white"></path></svg>